<svg xmlns="http://www.w3.org/2000/svg" viewBox="0 0 340 440" width="340" height="440">
  <!-- Simple Student Template — orange accent -->
  <rect width="340" height="440" fill="#ffffff" rx="4"/>
  <!-- Top band with gradient-like feel -->
  <rect width="340" height="8" fill="#ea580c"/>
  <!-- Name area -->
  <rect x="30" y="26" width="190" height="20" rx="3" fill="#1e3560"/>
  <!-- Orange underline below name -->
  <rect x="30" y="50" width="80" height="3" rx="1.5" fill="#ea580c"/>
  <!-- Job title -->
  <rect x="30" y="62" width="140" height="9" rx="2" fill="#64748b"/>
  <!-- Contact icons row -->
  <circle cx="36" cy="84" r="5" fill="#fff7ed" stroke="#ea580c" stroke-width="1.5"/>
  <rect x="48" y="80" width="70" height="7" rx="2" fill="#94a3b8"/>
  <circle cx="130" cy="84" r="5" fill="#fff7ed" stroke="#ea580c" stroke-width="1.5"/>
  <rect x="142" y="80" width="70" height="7" rx="2" fill="#94a3b8"/>
  <circle cx="224" cy="84" r="5" fill="#fff7ed" stroke="#ea580c" stroke-width="1.5"/>
  <rect x="236" y="80" width="70" height="7" rx="2" fill="#94a3b8"/>
  <!-- Full divider with orange -->
  <rect x="30" y="100" width="280" height="2" fill="#ea580c"/>
  <!-- Section: Objective -->
  <rect x="30" y="112" width="100" height="9" rx="2" fill="#ea580c"/>
  <rect x="30" y="128" width="280" height="6" rx="2" fill="#cbd5e1"/>
  <rect x="30" y="139" width="250" height="6" rx="2" fill="#cbd5e1"/>
  <rect x="30" y="150" width="265" height="6" rx="2" fill="#cbd5e1"/>
  <rect x="30" y="165" width="280" height="1.5" fill="#fed7aa"/>
  <!-- Section: Education -->
  <rect x="30" y="175" width="80" height="9" rx="2" fill="#ea580c"/>
  <!-- Student-style education box -->
  <rect x="30" y="191" width="280" height="46" rx="6" fill="#fff7ed" stroke="#fed7aa" stroke-width="1.5"/>
  <rect x="44" y="200" width="180" height="8" rx="2" fill="#334155"/>
  <rect x="236" y="200" width="62" height="8" rx="2" fill="#94a3b8"/>
  <rect x="44" y="214" width="130" height="6" rx="2" fill="#94a3b8"/>
  <rect x="44" y="225" width="100" height="6" rx="2" fill="#94a3b8"/>
  <rect x="30" y="248" width="280" height="1.5" fill="#fed7aa"/>
  <!-- Section: Skills -->
  <rect x="30" y="258" width="55" height="9" rx="2" fill="#ea580c"/>
  <!-- Skill pills in orange theme -->
  <rect x="30" y="274" width="62" height="22" rx="11" fill="#fff7ed" stroke="#fed7aa" stroke-width="1.5"/>
  <rect x="100" y="274" width="56" height="22" rx="11" fill="#fff7ed" stroke="#fed7aa" stroke-width="1.5"/>
  <rect x="164" y="274" width="70" height="22" rx="11" fill="#fff7ed" stroke="#fed7aa" stroke-width="1.5"/>
  <rect x="242" y="274" width="48" height="22" rx="11" fill="#fff7ed" stroke="#fed7aa" stroke-width="1.5"/>
  <rect x="30" y="302" width="66" height="22" rx="11" fill="#fff7ed" stroke="#fed7aa" stroke-width="1.5"/>
  <rect x="104" y="302" width="58" height="22" rx="11" fill="#fff7ed" stroke="#fed7aa" stroke-width="1.5"/>
  <rect x="30" y="336" width="280" height="1.5" fill="#fed7aa"/>
  <!-- Section: Projects -->
  <rect x="30" y="346" width="65" height="9" rx="2" fill="#ea580c"/>
  <!-- Project card boxes -->
  <rect x="30" y="362" width="280" height="36" rx="6" fill="#fff7ed" stroke="#fed7aa" stroke-width="1.5"/>
  <rect x="44" y="370" width="170" height="8" rx="2" fill="#334155"/>
  <rect x="44" y="384" width="252" height="6" rx="2" fill="#94a3b8"/>
  <rect x="30" y="406" width="280" height="36" rx="6" fill="#fff7ed" stroke="#fed7aa" stroke-width="1.5"/>
  <rect x="44" y="414" width="150" height="8" rx="2" fill="#334155"/>
  <rect x="44" y="428" width="252" height="6" rx="2" fill="#94a3b8"/>
</svg>
