<svg xmlns="http://www.w3.org/2000/svg" viewBox="0 0 340 440" width="340" height="440">
  <!-- Green Sidebar Template — two column layout -->
  <rect width="340" height="440" fill="#ffffff" rx="4"/>
  <!-- Green left sidebar -->
  <rect width="115" height="440" fill="#15803d" rx="0"/>
  <!-- Sidebar: Avatar circle -->
  <circle cx="57" cy="60" r="34" fill="rgba(255,255,255,0.15)"/>
  <circle cx="57" cy="60" r="26" fill="rgba(255,255,255,0.25)"/>
  <!-- Sidebar: Name area (initials) -->
  <rect x="20" y="104" width="75" height="10" rx="2" fill="rgba(255,255,255,0.85)"/>
  <rect x="28" y="119" width="58" height="7" rx="2" fill="rgba(255,255,255,0.55)"/>
  <!-- Sidebar divider -->
  <rect x="14" y="136" width="86" height="1" fill="rgba(255,255,255,0.2)"/>
  <!-- Sidebar: Contact section -->
  <rect x="14" y="145" width="50" height="7" rx="2" fill="rgba(255,255,255,0.65)"/>
  <rect x="14" y="158" width="86" height="6" rx="2" fill="rgba(255,255,255,0.4)"/>
  <rect x="14" y="170" width="80" height="6" rx="2" fill="rgba(255,255,255,0.4)"/>
  <rect x="14" y="182" width="72" height="6" rx="2" fill="rgba(255,255,255,0.4)"/>
  <!-- Sidebar divider -->
  <rect x="14" y="198" width="86" height="1" fill="rgba(255,255,255,0.2)"/>
  <!-- Sidebar: Skills section -->
  <rect x="14" y="207" width="50" height="7" rx="2" fill="rgba(255,255,255,0.65)"/>
  <rect x="14" y="221" width="86" height="5" rx="2.5" fill="rgba(255,255,255,0.2)"/>
  <rect x="14" y="221" width="72" height="5" rx="2.5" fill="rgba(255,255,255,0.7)"/>
  <rect x="14" y="232" width="86" height="5" rx="2.5" fill="rgba(255,255,255,0.2)"/>
  <rect x="14" y="232" width="55" height="5" rx="2.5" fill="rgba(255,255,255,0.7)"/>
  <rect x="14" y="243" width="86" height="5" rx="2.5" fill="rgba(255,255,255,0.2)"/>
  <rect x="14" y="243" width="80" height="5" rx="2.5" fill="rgba(255,255,255,0.7)"/>
  <rect x="14" y="254" width="86" height="5" rx="2.5" fill="rgba(255,255,255,0.2)"/>
  <rect x="14" y="254" width="62" height="5" rx="2.5" fill="rgba(255,255,255,0.7)"/>
  <rect x="14" y="265" width="86" height="5" rx="2.5" fill="rgba(255,255,255,0.2)"/>
  <rect x="14" y="265" width="48" height="5" rx="2.5" fill="rgba(255,255,255,0.7)"/>
  <!-- Sidebar divider -->
  <rect x="14" y="280" width="86" height="1" fill="rgba(255,255,255,0.2)"/>
  <!-- Sidebar: Education -->
  <rect x="14" y="289" width="60" height="7" rx="2" fill="rgba(255,255,255,0.65)"/>
  <rect x="14" y="302" width="86" height="6" rx="2" fill="rgba(255,255,255,0.5)"/>
  <rect x="14" y="313" width="70" height="6" rx="2" fill="rgba(255,255,255,0.35)"/>
  <rect x="14" y="324" width="60" height="6" rx="2" fill="rgba(255,255,255,0.35)"/>
  <rect x="14" y="340" width="86" height="6" rx="2" fill="rgba(255,255,255,0.5)"/>
  <rect x="14" y="351" width="70" height="6" rx="2" fill="rgba(255,255,255,0.35)"/>
  <!-- Right main content area -->
  <!-- Name big heading -->
  <rect x="130" y="28" width="170" height="18" rx="3" fill="#15803d"/>
  <rect x="130" y="52" width="110" height="9" rx="2" fill="#64748b"/>
  <!-- Green accent line -->
  <rect x="130" y="70" width="180" height="3" fill="#15803d"/>
  <!-- Objective section -->
  <rect x="130" y="82" width="80" height="8" rx="2" fill="#15803d"/>
  <rect x="130" y="96" width="190" height="6" rx="2" fill="#cbd5e1"/>
  <rect x="130" y="107" width="170" height="6" rx="2" fill="#cbd5e1"/>
  <rect x="130" y="118" width="180" height="6" rx="2" fill="#cbd5e1"/>
  <rect x="130" y="133" width="190" height="2" fill="#dcfce7"/>
  <!-- Experience section -->
  <rect x="130" y="143" width="80" height="8" rx="2" fill="#15803d"/>
  <rect x="130" y="157" width="160" height="7" rx="2" fill="#334155"/>
  <rect x="130" y="170" width="100" height="6" rx="2" fill="#94a3b8"/>
  <rect x="130" y="182" width="190" height="6" rx="2" fill="#cbd5e1"/>
  <rect x="130" y="193" width="160" height="6" rx="2" fill="#cbd5e1"/>
  <rect x="130" y="207" width="190" height="2" fill="#dcfce7"/>
  <!-- Projects section -->
  <rect x="130" y="217" width="65" height="8" rx="2" fill="#15803d"/>
  <rect x="130" y="231" width="155" height="7" rx="2" fill="#334155"/>
  <rect x="130" y="244" width="190" height="6" rx="2" fill="#cbd5e1"/>
  <rect x="130" y="255" width="175" height="6" rx="2" fill="#cbd5e1"/>
  <rect x="130" y="269" width="190" height="2" fill="#dcfce7"/>
  <rect x="130" y="279" width="140" height="7" rx="2" fill="#334155"/>
  <rect x="130" y="292" width="190" height="6" rx="2" fill="#cbd5e1"/>
  <rect x="130" y="303" width="165" height="6" rx="2" fill="#cbd5e1"/>
  <rect x="130" y="317" width="190" height="2" fill="#dcfce7"/>
  <!-- Certifications -->
  <rect x="130" y="327" width="90" height="8" rx="2" fill="#15803d"/>
  <rect x="130" y="341" width="190" height="6" rx="2" fill="#cbd5e1"/>
  <rect x="130" y="352" width="150" height="6" rx="2" fill="#cbd5e1"/>
</svg>
