<svg xmlns="http://www.w3.org/2000/svg" viewBox="0 0 340 440" width="340" height="440">
  <!-- Minimal White Template -->
  <rect width="340" height="440" fill="#ffffff" rx="4"/>
  <!-- Thin top line only -->
  <rect width="340" height="3" fill="#111111"/>
  <!-- Name — very large, centered -->
  <rect x="70" y="28" width="200" height="22" rx="3" fill="#111111"/>
  <!-- Job title centered -->
  <rect x="100" y="58" width="140" height="10" rx="2" fill="#64748b"/>
  <!-- Contact row centered, small -->
  <rect x="50" y="78" width="60" height="6" rx="2" fill="#94a3b8"/>
  <rect x="140" y="78" width="60" height="6" rx="2" fill="#94a3b8"/>
  <rect x="230" y="78" width="60" height="6" rx="2" fill="#94a3b8"/>
  <!-- Thin full-width divider -->
  <rect x="30" y="97" width="280" height="1" fill="#111111"/>
  <!-- Section: Objective — uppercase label -->
  <rect x="30" y="110" width="100" height="7" rx="2" fill="#111111"/>
  <rect x="30" y="124" width="280" height="6" rx="2" fill="#cbd5e1"/>
  <rect x="30" y="135" width="250" height="6" rx="2" fill="#cbd5e1"/>
  <rect x="30" y="146" width="265" height="6" rx="2" fill="#cbd5e1"/>
  <rect x="30" y="162" width="280" height="1" fill="#e2e8f0"/>
  <!-- Section: Education -->
  <rect x="30" y="173" width="80" height="7" rx="2" fill="#111111"/>
  <rect x="30" y="187" width="200" height="8" rx="2" fill="#334155"/>
  <rect x="242" y="187" width="68" height="8" rx="2" fill="#94a3b8"/>
  <rect x="30" y="201" width="140" height="6" rx="2" fill="#94a3b8"/>
  <rect x="30" y="213" width="110" height="6" rx="2" fill="#94a3b8"/>
  <rect x="30" y="228" width="280" height="1" fill="#e2e8f0"/>
  <!-- Section: Skills — pills -->
  <rect x="30" y="239" width="55" height="7" rx="2" fill="#111111"/>
  <rect x="30" y="253" width="62" height="20" rx="3" fill="#f1f5f9"/>
  <rect x="100" y="253" width="56" height="20" rx="3" fill="#f1f5f9"/>
  <rect x="164" y="253" width="72" height="20" rx="3" fill="#f1f5f9"/>
  <rect x="244" y="253" width="46" height="20" rx="3" fill="#f1f5f9"/>
  <rect x="30" y="279" width="66" height="20" rx="3" fill="#f1f5f9"/>
  <rect x="104" y="279" width="58" height="20" rx="3" fill="#f1f5f9"/>
  <rect x="170" y="279" width="52" height="20" rx="3" fill="#f1f5f9"/>
  <rect x="30" y="310" width="280" height="1" fill="#e2e8f0"/>
  <!-- Section: Projects -->
  <rect x="30" y="320" width="65" height="7" rx="2" fill="#111111"/>
  <rect x="30" y="335" width="190" height="8" rx="2" fill="#334155"/>
  <rect x="30" y="349" width="280" height="6" rx="2" fill="#cbd5e1"/>
  <rect x="30" y="360" width="245" height="6" rx="2" fill="#cbd5e1"/>
  <rect x="30" y="375" width="170" height="8" rx="2" fill="#334155"/>
  <rect x="30" y="389" width="280" height="6" rx="2" fill="#cbd5e1"/>
  <rect x="30" y="400" width="210" height="6" rx="2" fill="#cbd5e1"/>
  <rect x="30" y="415" width="280" height="1" fill="#e2e8f0"/>
  <!-- Certifications -->
  <rect x="30" y="425" width="80" height="7" rx="2" fill="#111111"/>
</svg>
