<svg xmlns="http://www.w3.org/2000/svg" viewBox="0 0 340 440" width="340" height="440">
  <!-- Classic Clean Template -->
  <rect width="340" height="440" fill="#ffffff" rx="4"/>
  <!-- Top border accent -->
  <rect width="340" height="6" fill="#1a56db" rx="0"/>
  <!-- Name -->
  <rect x="30" y="30" width="180" height="18" rx="3" fill="#1e3560"/>
  <!-- Job title -->
  <rect x="30" y="56" width="120" height="10" rx="2" fill="#1a56db"/>
  <!-- Contact row -->
  <rect x="30" y="76" width="80" height="7" rx="2" fill="#94a3b8"/>
  <rect x="120" y="76" width="80" height="7" rx="2" fill="#94a3b8"/>
  <rect x="210" y="76" width="80" height="7" rx="2" fill="#94a3b8"/>
  <!-- Divider -->
  <rect x="30" y="95" width="280" height="2" fill="#e2e8f0"/>
  <!-- Section: Objective -->
  <rect x="30" y="108" width="90" height="9" rx="2" fill="#1a56db"/>
  <rect x="30" y="124" width="280" height="7" rx="2" fill="#cbd5e1"/>
  <rect x="30" y="136" width="240" height="7" rx="2" fill="#cbd5e1"/>
  <rect x="30" y="148" width="260" height="7" rx="2" fill="#cbd5e1"/>
  <!-- Divider -->
  <rect x="30" y="165" width="280" height="1" fill="#e2e8f0"/>
  <!-- Section: Education -->
  <rect x="30" y="175" width="80" height="9" rx="2" fill="#1a56db"/>
  <rect x="30" y="191" width="200" height="8" rx="2" fill="#334155"/>
  <rect x="30" y="204" width="140" height="6" rx="2" fill="#94a3b8"/>
  <rect x="30" y="215" width="100" height="6" rx="2" fill="#94a3b8"/>
  <!-- Divider -->
  <rect x="30" y="232" width="280" height="1" fill="#e2e8f0"/>
  <!-- Section: Skills -->
  <rect x="30" y="242" width="55" height="9" rx="2" fill="#1a56db"/>
  <rect x="30" y="258" width="60" height="22" rx="11" fill="#eff6ff" stroke="#bfdbfe" stroke-width="1"/>
  <rect x="98" y="258" width="55" height="22" rx="11" fill="#eff6ff" stroke="#bfdbfe" stroke-width="1"/>
  <rect x="161" y="258" width="70" height="22" rx="11" fill="#eff6ff" stroke="#bfdbfe" stroke-width="1"/>
  <rect x="239" y="258" width="50" height="22" rx="11" fill="#eff6ff" stroke="#bfdbfe" stroke-width="1"/>
  <rect x="30" y="286" width="65" height="22" rx="11" fill="#eff6ff" stroke="#bfdbfe" stroke-width="1"/>
  <rect x="103" y="286" width="58" height="22" rx="11" fill="#eff6ff" stroke="#bfdbfe" stroke-width="1"/>
  <!-- Divider -->
  <rect x="30" y="318" width="280" height="1" fill="#e2e8f0"/>
  <!-- Section: Projects -->
  <rect x="30" y="328" width="65" height="9" rx="2" fill="#1a56db"/>
  <rect x="30" y="344" width="200" height="8" rx="2" fill="#334155"/>
  <rect x="30" y="358" width="280" height="6" rx="2" fill="#cbd5e1"/>
  <rect x="30" y="369" width="240" height="6" rx="2" fill="#cbd5e1"/>
  <rect x="30" y="380" width="260" height="6" rx="2" fill="#cbd5e1"/>
  <rect x="30" y="396" width="180" height="8" rx="2" fill="#334155"/>
  <rect x="30" y="410" width="280" height="6" rx="2" fill="#cbd5e1"/>
  <rect x="30" y="421" width="200" height="6" rx="2" fill="#cbd5e1"/>
</svg>
