<svg xmlns="http://www.w3.org/2000/svg" viewBox="0 0 120 120" width="120" height="120">
  <circle cx="60" cy="60" r="60" fill="#dcfce7"/>
  <!-- Body — suit -->
  <ellipse cx="60" cy="105" rx="34" ry="22" fill="#1e3560"/>
  <!-- Shirt/tie -->
  <rect x="55" y="88" width="10" height="18" rx="2" fill="white" opacity="0.8"/>
  <polygon points="60,90 57,98 63,98" fill="#dc2626"/>
  <!-- Neck -->
  <rect x="52" y="78" width="16" height="14" rx="4" fill="#fcd9a0"/>
  <!-- Head -->
  <circle cx="60" cy="68" r="22" fill="#fcd9a0"/>
  <!-- Hair — short, professional -->
  <ellipse cx="60" cy="49" rx="22" ry="9" fill="#334155"/>
  <rect x="38" y="49" width="44" height="6" fill="#334155"/>
  <!-- Eyes -->
  <circle cx="53" cy="67" r="3.5" fill="#334155"/>
  <circle cx="67" cy="67" r="3.5" fill="#334155"/>
  <circle cx="54" cy="66" r="1.2" fill="white"/>
  <circle cx="68" cy="66" r="1.2" fill="white"/>
  <!-- Glasses -->
  <rect x="46" y="62" width="14" height="11" rx="3" fill="none" stroke="#64748b" stroke-width="1.5"/>
  <rect x="62" y="62" width="14" height="11" rx="3" fill="none" stroke="#64748b" stroke-width="1.5"/>
  <line x1="60" y1="66" x2="62" y2="66" stroke="#64748b" stroke-width="1.5"/>
  <line x1="46" y1="66" x2="42" y2="64" stroke="#64748b" stroke-width="1.5"/>
  <line x1="76" y1="66" x2="80" y2="64" stroke="#64748b" stroke-width="1.5"/>
  <!-- Smile -->
  <path d="M53 76 Q60 82 67 76" fill="none" stroke="#c2855a" stroke-width="2" stroke-linecap="round"/>
</svg>
